<?xml version="1.0" standalone="no"?>
<!DOCTYPE svg PUBLIC "-//W3C//DTD SVG 20010904//EN"
 "http://www.w3.org/TR/2001/REC-SVG-20010904/DTD/svg10.dtd">
<svg version="1.0" xmlns="http://www.w3.org/2000/svg"
 width="32.000000pt" height="32.000000pt" viewBox="0 0 32.000000 32.000000"
 preserveAspectRatio="xMidYMid meet">

<g transform="translate(0.000000,32.000000) scale(0.100000,-0.100000)"
fill="#096ceb" stroke="none">
<path d="M126 295 c-26 -28 -39 -62 -26 -70 4 -3 18 11 29 31 13 22 27 34 35
31 20 -8 28 4 15 20 -16 19 -27 16 -53 -12z"/>
<path d="M47 273 c-21 -20 3 -113 28 -113 14 0 14 3 0 30 -19 37 -19 59 0 66
8 4 15 10 15 15 0 10 -33 12 -43 2z"/>
<path d="M183 270 c-13 -5 -23 -16 -23 -24 0 -13 3 -13 28 0 36 19 59 18 71
-3 5 -10 13 -14 17 -10 5 4 3 16 -2 25 -13 20 -59 26 -91 12z"/>
<path d="M217 223 c-4 -3 10 -16 30 -28 21 -11 38 -28 38 -38 0 -24 19 -26 23
-2 5 33 -71 89 -91 68z"/>
<path d="M11 182 c-11 -20 -10 -27 6 -44 26 -29 70 -50 78 -37 4 6 5 11 4 12
-2 1 -17 9 -34 17 -20 11 -32 26 -35 45 l-6 30 -13 -23z"/>
<path d="M245 123 c12 -33 11 -40 -2 -56 -9 -9 -13 -20 -9 -24 11 -12 41 12
44 36 5 29 -17 81 -33 81 -10 0 -10 -8 0 -37z"/>
<path d="M189 67 c-12 -23 -22 -31 -39 -29 -28 3 -22 -22 7 -26 24 -4 63 40
63 69 0 28 -13 22 -31 -14z"/>
<path d="M42 74 c2 -9 10 -22 20 -27 22 -14 98 8 98 29 0 11 -4 12 -19 4 -25
-13 -81 -13 -81 0 0 6 -5 10 -11 10 -6 0 -9 -7 -7 -16z"/>
</g>
</svg>
