<svg width="48" height="48" viewBox="0 0 48 48" fill="none" xmlns="http://www.w3.org/2000/svg">
<rect width="48" height="48" fill="#0057C2"/>
<path d="M19.6581 21.3602H17.7237V18.8227H19.5948C20.2298 18.8227 20.6971 18.911 21.0108 19.112C21.3164 19.3079 21.4786 19.6313 21.4786 20.0723C21.4786 20.9389 20.8832 21.3602 19.6581 21.3602ZM17.7237 15.0692H19.1637C19.8322 15.0692 20.3028 15.1291 20.6233 15.2773C20.926 15.4171 21.1046 15.7122 21.1046 16.1478C21.1046 16.3503 21.0686 16.553 20.9697 16.7192C20.8442 16.9509 20.6551 17.0858 20.4187 17.1678C20.1733 17.253 19.8172 17.2961 19.3602 17.2961H17.7237V15.0692ZM21.8695 17.9272C22.7032 17.4787 23.1257 16.7977 23.1257 15.9005C23.1257 15.6206 23.079 15.3514 22.9873 15.1002C22.8953 14.8487 22.7601 14.6158 22.5851 14.4079C22.4109 14.2007 22.2072 14.027 21.9801 13.8914C21.7139 13.7301 21.4091 13.6195 21.0742 13.5628C20.7456 13.5075 20.3524 13.4793 19.9054 13.4793H16.8936C16.47 13.4793 16.1558 13.5788 15.9599 13.7746C15.764 13.9705 15.6646 14.2889 15.6646 14.7213V22.9502H19.7344C20.2266 22.9502 20.6633 22.9253 21.0328 22.8763C21.4062 22.8273 21.7422 22.741 22.0333 22.6193C22.4996 22.4146 22.8752 22.0929 23.1497 21.6638C23.424 21.2351 23.5632 20.7466 23.5632 20.212C23.5632 19.1136 22.9938 18.3458 21.8695 17.9272" fill="white"/>
<path d="M9.61921 15.6811L9.63056 15.7123L9.64207 15.6811L10.8887 19.1565H8.37258L9.61921 15.6811ZM7.8184 20.7399H11.4429L12.2543 22.9346H14.3863L11.0855 14.5548C10.9888 14.308 10.8839 14.0996 10.7733 13.9349C10.6592 13.7644 10.5067 13.6245 10.3208 13.5192C10.1334 13.4132 9.90134 13.3593 9.63056 13.3593C9.35994 13.3593 9.12769 13.4132 8.94051 13.5192C8.75461 13.6245 8.60228 13.7644 8.48783 13.9349C8.37738 14.0996 8.27251 14.308 8.17597 14.5548L4.875 22.9346H7.00686L7.8184 20.7399Z" fill="white"/>
<path d="M28.7836 21.3602H26.8491V18.8227H28.7201C29.355 18.8227 29.8226 18.911 30.1362 19.112C30.4418 19.3079 30.604 19.6313 30.604 20.0723C30.604 20.9389 30.0085 21.3602 28.7836 21.3602ZM26.8491 15.0692H28.289C28.9576 15.0692 29.428 15.1291 29.7487 15.2773C30.0514 15.4171 30.2298 15.7122 30.2298 16.1478C30.2298 16.3503 30.194 16.553 30.0951 16.7192C29.9694 16.9509 29.7804 17.0858 29.5441 17.1678C29.2986 17.253 28.9423 17.2961 28.4856 17.2961H26.8491V15.0692ZM30.9947 17.9272C31.8285 17.4787 32.2509 16.7977 32.2509 15.9005C32.2509 15.6206 32.2043 15.3514 32.1123 15.1002C32.0206 14.8487 31.8855 14.6158 31.7103 14.4079C31.5361 14.2007 31.3326 14.027 31.1055 13.8914C30.8392 13.7301 30.5343 13.6195 30.1995 13.5628C29.8708 13.5075 29.4776 13.4793 29.0307 13.4793H26.019C25.5953 13.4793 25.281 13.5788 25.0852 13.7746C24.8892 13.9705 24.7898 14.2889 24.7898 14.7213V22.9502H28.8596C29.3518 22.9502 29.7887 22.9253 30.1581 22.8763C30.5316 22.8273 30.8676 22.741 31.1585 22.6193C31.6248 22.4146 32.0006 22.0929 32.2751 21.6638C32.5494 21.2351 32.6884 20.7466 32.6884 20.212C32.6884 19.1136 32.1191 18.3458 30.9947 17.9272" fill="white"/>
<path d="M5.65137 28.4339H6.23193V29.5121C6.62292 28.884 7.16799 28.2915 8.24615 28.2915C9.30065 28.2915 9.95235 28.8959 10.2842 29.5949C10.6752 28.9197 11.3267 28.2915 12.4643 28.2915C13.8978 28.2915 14.7866 29.2988 14.7866 30.8154V34.4766H14.206V30.8864C14.206 29.583 13.5305 28.8247 12.417 28.8247C11.398 28.8247 10.5093 29.6068 10.5093 30.9575V34.4766H9.92869V30.8509C9.92869 29.5949 9.24135 28.8247 8.16319 28.8247C7.08503 28.8247 6.23193 29.7728 6.23193 30.993V34.4766H5.65137V28.4339" fill="white"/>
<path d="M22.0678 31.4556C22.0678 29.9983 20.9421 28.837 19.5794 28.837C18.2169 28.837 17.1149 30.0101 17.1149 31.4556C17.1149 32.9131 18.2052 34.0741 19.6033 34.0741C20.9421 34.0741 22.0678 32.9011 22.0678 31.4556ZM16.4871 31.4556C16.4871 29.7613 17.8021 28.292 19.6033 28.292C21.3924 28.292 22.6956 29.7374 22.6956 31.4556C22.6956 33.1502 21.3804 34.6191 19.5794 34.6191C17.7903 34.6191 16.4871 33.1737 16.4871 31.4556Z" fill="white"/>
<path d="M29.8418 31.4556C29.8418 29.8679 28.7401 28.849 27.4721 28.849C26.2162 28.849 25.0077 29.9034 25.0077 31.4676C25.0077 33.0197 26.2162 34.0624 27.4721 34.0624C28.7875 34.0624 29.8418 33.1025 29.8418 31.4556ZM25.0432 33.1737V34.477H24.4626V25.8276H25.0432V29.7851C25.5646 28.9911 26.3348 28.292 27.5314 28.292C28.9887 28.292 30.4698 29.4651 30.4698 31.4556C30.4698 33.4224 28.9887 34.6191 27.5314 34.6191C26.3229 34.6191 25.5408 33.932 25.0432 33.1737Z" fill="white"/>
<path d="M32.2776 28.4339H32.858V34.4766H32.2776V28.4339ZM32.2063 26.064H32.9293V26.858H32.2063V26.064Z" fill="white"/>
<path d="M35.0571 25.8272H35.6377V34.4766H35.0571V25.8272Z" fill="white"/>
<path d="M42.4498 31.1713C42.367 29.9508 41.6678 28.8252 40.2816 28.8252C39.085 28.8252 38.1607 29.8324 38.054 31.1713H42.4498ZM37.438 31.4438C37.438 29.6901 38.6702 28.292 40.3051 28.292C41.9997 28.292 43.0778 29.6665 43.0778 31.4556C43.0778 31.5622 43.0778 31.5977 43.066 31.6925H38.054C38.1607 33.1975 39.2388 34.0741 40.4238 34.0741C41.3598 34.0741 41.9997 33.6594 42.4973 33.1263L42.9001 33.4817C42.284 34.1452 41.5612 34.6191 40.4001 34.6191C38.8123 34.6191 37.438 33.3514 37.438 31.4438Z" fill="white"/>
</svg>
